<?xml version="1.0" encoding="UTF-8"?>
<svg id="Layer_1" data-name="Layer 1" xmlns="http://www.w3.org/2000/svg" viewBox="0 0 1215.12 158.81">
  <defs>
    <style>
      .cls-1 {
        fill: #ebd1ab;
        stroke-width: 0px;
      }
    </style>
  </defs>
  <g>
    <polygon class="cls-1" points="361.68 32.81 350.25 32.81 350.25 125.83 357.04 125.83 357.04 125.83 425.76 125.83 425.76 121.25 361.68 121.25 361.68 32.81"/>
    <path class="cls-1" d="M664.59,117.46c-15.55,7.04-37.34,2.92-54.08-12.22-12.09-10.9-25.38-39.33-6.24-57.8,21.13-20.33,52.35-3.99,59.93,3.72l5.58-10.1c-17.14-12.76-48.37-14.08-67.37,4.52-13.42,13.15-23.78,45.04,0,67.63,20.6,19.53,47.44,15.55,62.98,7.17l10.63,5.45v-44.51h-11.43v36.14Z"/>
    <path class="cls-1" d="M632.43,32.68c-10.62,1.29-21.08,5.53-29.27,13.54-11.78,11.54-21.17,37.51-7.23,58.96,1.36-3.52,3.85-6.27,8.17-7.13-9.17-13.42-14.57-35.03.91-49.97,8.48-8.16,15.85-11.1,27.72-10.3-.63-1.82-.46-3.17-.31-5.1Z"/>
    <path class="cls-1" d="M1054.12,32.68c-10.62,1.29-21.08,5.53-29.27,13.54-11.78,11.54-21.17,37.51-7.23,58.96,1.36-3.52,3.85-6.27,8.17-7.13-9.17-13.42-14.57-35.03.91-49.97,8.48-8.16,15.85-11.1,27.72-10.3-.63-1.82-.46-3.17-.31-5.1Z"/>
    <path class="cls-1" d="M758.48,32.28l6.38,12.62-36.82,69.21-6.23,11.71h0,0s3.06,0,3.06,0h0s2.13,0,2.13,0l13.91-26.13h51.69l13.19,26.13h12.89l-47.17-93.54h-13.02ZM743.33,95.11l24.05-45.19,22.91,45.19h-46.95Z"/>
    <polygon class="cls-1" points="956.34 32.81 953.69 32.81 953.69 32.83 951.78 32.83 951.78 106.1 866.79 32.28 866.79 125.83 866.8 125.83 866.8 125.84 871.37 125.84 871.37 52.43 956.34 126.22 956.34 115.08 956.36 115.08 956.36 32.83 956.34 32.83 956.34 32.81"/>
    <path class="cls-1" d="M1032.1,105.23c-12.09-10.9-25.38-39.33-6.24-57.8,21.13-20.33,52.35-3.99,59.93,3.72l5.58-10.1c-17.14-12.76-48.37-14.08-67.37,4.52-13.42,13.15-23.78,45.04,0,67.63,26.05,24.71,62.19,11.69,72.82,0l-1.33-2.13c-14.88,14.75-42.92,12.62-63.38-5.85Z"/>
    <polygon class="cls-1" points="243.41 83.69 301.21 83.69 301.21 79.12 243.41 79.12 243.41 37.39 301.21 37.39 301.21 35.47 301.21 35.47 301.21 32.81 301.21 32.81 301.21 32.81 240.83 32.81 240.83 32.81 231.99 32.81 231.99 125.83 241.77 125.83 241.77 125.83 302.15 125.83 302.15 121.25 243.41 121.25 243.41 83.69"/>
    <polygon class="cls-1" points="483.33 83.69 541.12 83.69 541.12 79.12 483.33 79.12 483.33 37.39 541.12 37.39 541.12 35.47 541.13 35.47 541.13 32.81 541.12 32.81 541.12 32.81 480.74 32.81 480.74 32.81 471.9 32.81 471.84 32.81 471.84 125.83 471.9 125.83 481.68 125.83 481.68 125.83 542.06 125.83 542.06 121.25 483.33 121.25 483.33 83.69"/>
    <polygon class="cls-1" points="1156.39 121.25 1156.39 83.69 1214.19 83.69 1214.19 79.12 1156.39 79.12 1156.39 37.39 1214.19 37.39 1214.19 35.47 1214.19 35.47 1214.19 32.81 1214.19 32.81 1214.19 32.81 1153.8 32.81 1153.8 32.81 1144.96 32.81 1144.92 32.81 1144.92 125.83 1144.96 125.83 1154.74 125.83 1154.74 125.83 1215.12 125.83 1215.12 121.25 1156.39 121.25"/>
  </g>
  <g>
    <rect class="cls-1" x="65.9" y="0" width="11.45" height="156.66"/>
    <g>
      <path class="cls-1" d="M35.77,158.16c-4.65-39.41-4.65-78.47,0-117.88,0,0,11.51,3,11.51,3-14.12,34.5-14.12,77.38,0,111.89,0,0-11.51,3-11.51,3h0Z"/>
      <path class="cls-1" d="M8.41,158.81C.07,133.95-1.87,108.16,1.71,82.24c0,0,9.9,3.01,9.9,3.01-10.74,21.32-8.76,49.74,5.95,68.73,0,0-9.15,4.83-9.15,4.83h0Z"/>
      <path class="cls-1" d="M95.97,155.16c14.12-34.5,14.12-77.38,0-111.89,0,0,11.51-3,11.51-3,4.65,39.41,4.65,78.47,0,117.88,0,0-11.51-3-11.51-3h0Z"/>
      <path class="cls-1" d="M125.7,153.98c14.71-18.99,16.69-47.41,5.95-68.73,0,0,9.9-3.01,9.9-3.01,3.58,25.91,1.64,51.71-6.7,76.57,0,0-9.15-4.83-9.15-4.83h0Z"/>
    </g>
  </g>
</svg>