<?xml version="1.0" encoding="UTF-8"?>
<svg id="Layer_1" data-name="Layer 1" xmlns="http://www.w3.org/2000/svg" viewBox="0 0 687.3 761.92">
  <defs>
    <style>
      .cls-1 {
        fill: #0b262c;
        stroke-width: 0px;
      }
    </style>
  </defs>
  <rect class="cls-1" x="316.19" width="54.93" height="751.61"/>
  <g>
    <path class="cls-1" d="M171.63,758.8c-22.32-189.09-22.32-376.47,0-565.56,0,0,55.24,14.38,55.24,14.38-67.73,165.53-67.74,371.24,0,536.79,0,0-55.24,14.38-55.24,14.38h0Z"/>
    <path class="cls-1" d="M40.34,761.92C.36,642.66-8.96,518.9,8.21,394.57c0,0,47.48,14.44,47.48,14.44-51.52,102.3-42.05,238.63,28.54,329.75,0,0-43.89,23.16-43.89,23.16h0Z"/>
    <path class="cls-1" d="M460.43,744.41c67.74-165.53,67.74-371.24,0-536.79,0,0,55.24-14.38,55.24-14.38,22.32,189.09,22.32,376.47,0,565.56,0,0-55.24-14.38-55.24-14.38h0Z"/>
    <path class="cls-1" d="M603.07,738.76c70.59-91.12,80.07-227.45,28.54-329.75,0,0,47.48-14.44,47.48-14.44,17.17,124.33,7.85,248.09-32.13,367.35,0,0-43.9-23.16-43.9-23.16h0Z"/>
  </g>
</svg>