<?xml version="1.0" encoding="UTF-8"?>
<svg id="Layer_1" data-name="Layer 1" xmlns="http://www.w3.org/2000/svg" viewBox="0 0 983.13 337.21">
  <defs>
    <style>
      .cls-1 {
        fill: #0b262c;
        stroke-width: 0px;
      }
    </style>
  </defs>
  <g>
    <polygon class="cls-1" points="129.69 242.74 118.26 242.74 118.26 335.75 125.05 335.75 125.05 335.75 193.77 335.75 193.77 331.18 129.69 331.18 129.69 242.74"/>
    <path class="cls-1" d="M432.6,327.38c-15.55,7.04-37.34,2.92-54.08-12.22-12.09-10.9-25.38-39.33-6.24-57.8,21.13-20.33,52.35-3.99,59.93,3.72l5.58-10.1c-17.14-12.76-48.37-14.08-67.37,4.52-13.42,13.15-23.78,45.04,0,67.63,20.6,19.53,47.44,15.55,62.98,7.17l10.63,5.45v-44.51h-11.43v36.14Z"/>
    <path class="cls-1" d="M400.44,242.6c-10.62,1.29-21.08,5.53-29.27,13.54-11.78,11.54-21.17,37.51-7.23,58.96,1.36-3.52,3.85-6.27,8.17-7.13-9.17-13.42-14.57-35.03.91-49.97,8.48-8.16,15.85-11.1,27.72-10.3-.63-1.82-.46-3.17-.31-5.1Z"/>
    <path class="cls-1" d="M822.13,242.6c-10.62,1.29-21.08,5.53-29.27,13.54-11.78,11.54-21.17,37.51-7.23,58.96,1.36-3.52,3.85-6.27,8.17-7.13-9.17-13.42-14.57-35.03.91-49.97,8.48-8.16,15.85-11.1,27.72-10.3-.63-1.82-.46-3.17-.31-5.1Z"/>
    <path class="cls-1" d="M526.49,242.21l6.38,12.62-36.82,69.21-6.23,11.71h0,0s3.06,0,3.06,0h0s2.13,0,2.13,0l13.91-26.13h51.69l13.19,26.13h12.89l-47.17-93.54h-13.02ZM511.34,305.04l24.05-45.19,22.91,45.19h-46.95Z"/>
    <polygon class="cls-1" points="724.35 242.74 721.7 242.74 721.7 242.75 719.79 242.75 719.79 316.03 634.8 242.21 634.8 335.75 634.81 335.75 634.81 335.76 639.38 335.76 639.38 262.35 724.35 336.15 724.35 325.01 724.37 325.01 724.37 242.75 724.35 242.75 724.35 242.74"/>
    <path class="cls-1" d="M800.11,315.16c-12.09-10.9-25.38-39.33-6.24-57.8,21.13-20.33,52.35-3.99,59.93,3.72l5.58-10.1c-17.14-12.76-48.37-14.08-67.37,4.52-13.42,13.15-23.78,45.04,0,67.63,26.05,24.71,62.19,11.69,72.82,0l-1.33-2.13c-14.88,14.75-42.92,12.62-63.38-5.85Z"/>
    <polygon class="cls-1" points="11.43 293.62 69.22 293.62 69.22 289.04 11.43 289.04 11.43 247.32 69.22 247.32 69.22 245.4 69.23 245.4 69.23 242.74 69.22 242.74 69.22 242.74 8.84 242.74 8.84 242.74 0 242.74 0 335.75 9.78 335.75 9.78 335.75 70.16 335.75 70.16 331.18 11.43 331.18 11.43 293.62"/>
    <polygon class="cls-1" points="251.34 293.62 309.14 293.62 309.14 289.04 251.34 289.04 251.34 247.32 309.14 247.32 309.14 245.4 309.14 245.4 309.14 242.74 309.14 242.74 309.14 242.74 248.75 242.74 248.75 242.74 239.91 242.74 239.85 242.74 239.85 335.75 239.91 335.75 249.69 335.75 249.69 335.75 310.07 335.75 310.07 331.18 251.34 331.18 251.34 293.62"/>
    <polygon class="cls-1" points="924.4 331.18 924.4 293.62 982.2 293.62 982.2 289.04 924.4 289.04 924.4 247.32 982.2 247.32 982.2 245.4 982.2 245.4 982.2 242.74 982.2 242.74 982.2 242.74 921.82 242.74 921.82 242.74 912.97 242.74 912.93 242.74 912.93 335.75 912.97 335.75 922.75 335.75 922.75 335.75 983.13 335.75 983.13 331.18 924.4 331.18"/>
  </g>
  <g>
    <rect class="cls-1" x="487.84" y="0" width="11.45" height="156.66"/>
    <g>
      <path class="cls-1" d="M457.71,158.16c-4.65-39.41-4.65-78.47,0-117.88,0,0,11.51,3,11.51,3-14.12,34.5-14.12,77.38,0,111.89,0,0-11.51,3-11.51,3h0Z"/>
      <path class="cls-1" d="M430.35,158.81c-8.33-24.86-10.28-50.65-6.7-76.57,0,0,9.9,3.01,9.9,3.01-10.74,21.32-8.76,49.74,5.95,68.73,0,0-9.15,4.83-9.15,4.83h0Z"/>
      <path class="cls-1" d="M517.91,155.16c14.12-34.5,14.12-77.38,0-111.89,0,0,11.51-3,11.51-3,4.65,39.41,4.65,78.47,0,117.88,0,0-11.51-3-11.51-3h0Z"/>
      <path class="cls-1" d="M547.64,153.98c14.71-18.99,16.69-47.41,5.95-68.73,0,0,9.9-3.01,9.9-3.01,3.58,25.91,1.64,51.71-6.7,76.57,0,0-9.15-4.83-9.15-4.83h0Z"/>
    </g>
  </g>
</svg>