<?xml version="1.0" encoding="UTF-8"?>
<svg id="Layer_1" data-name="Layer 1" xmlns="http://www.w3.org/2000/svg" viewBox="0 0 1297.11 229.98">
  <defs>
    <style>
      .cls-1 {
        fill: #0b262c;
        stroke-width: 0px;
      }
    </style>
  </defs>
  <g>
    <rect class="cls-1" x="95.44" width="16.58" height="226.87"/>
    <g>
      <path class="cls-1" d="M51.8,229.04c-6.74-57.07-6.74-113.64,0-170.71,0,0,16.67,4.34,16.67,4.34-20.45,49.96-20.45,112.06,0,162.03,0,0-16.67,4.34-16.67,4.34h0Z"/>
      <path class="cls-1" d="M12.18,229.98C.11,193.98-2.7,156.63,2.48,119.1c0,0,14.33,4.36,14.33,4.36-15.55,30.88-12.69,72.03,8.61,99.53,0,0-13.25,6.99-13.25,6.99h0Z"/>
      <path class="cls-1" d="M138.98,224.7c20.45-49.97,20.45-112.06,0-162.03,0,0,16.67-4.34,16.67-4.34,6.74,57.08,6.74,113.64,0,170.71,0,0-16.67-4.34-16.67-4.34h0Z"/>
      <path class="cls-1" d="M182.03,222.99c21.31-27.5,24.17-68.65,8.61-99.53,0,0,14.33-4.36,14.33-4.36,5.18,37.53,2.37,74.88-9.7,110.88,0,0-13.25-6.99-13.25-6.99h0Z"/>
    </g>
  </g>
  <g>
    <g>
      <polygon class="cls-1" points="441.3 19.9 429.88 19.9 429.88 112.91 436.67 112.91 436.67 112.91 505.38 112.91 505.38 108.34 441.3 108.34 441.3 19.9"/>
      <path class="cls-1" d="M744.21,104.54c-15.55,7.04-37.34,2.92-54.08-12.22-12.09-10.9-25.38-39.33-6.24-57.8,21.13-20.33,52.35-3.99,59.93,3.72l5.58-10.1c-17.14-12.76-48.37-14.08-67.37,4.52-13.42,13.15-23.78,45.04,0,67.63,20.6,19.53,47.44,15.55,62.98,7.17l10.63,5.45v-44.51h-11.43v36.14Z"/>
      <path class="cls-1" d="M712.05,19.76c-10.62,1.29-21.08,5.53-29.27,13.54-11.78,11.54-21.17,37.51-7.23,58.96,1.36-3.52,3.85-6.27,8.17-7.13-9.17-13.42-14.57-35.03.91-49.97,8.48-8.16,15.85-11.1,27.72-10.3-.63-1.82-.46-3.17-.31-5.1Z"/>
      <path class="cls-1" d="M1133.74,19.76c-10.62,1.29-21.08,5.53-29.27,13.54-11.78,11.54-21.17,37.51-7.23,58.96,1.36-3.52,3.85-6.27,8.17-7.13-9.17-13.42-14.57-35.03.91-49.97,8.48-8.16,15.85-11.1,27.72-10.3-.63-1.82-.46-3.17-.31-5.1Z"/>
      <path class="cls-1" d="M838.1,19.37l6.38,12.62-36.82,69.21-6.23,11.71h0,0s3.06,0,3.06,0h0s2.13,0,2.13,0l13.91-26.13h51.69l13.19,26.13h12.89l-47.17-93.54h-13.02ZM822.96,82.2l24.05-45.19,22.91,45.19h-46.95Z"/>
      <polygon class="cls-1" points="1035.97 19.9 1033.31 19.9 1033.31 19.91 1031.41 19.91 1031.41 93.19 946.41 19.37 946.41 112.91 946.42 112.91 946.42 112.92 951 112.92 951 39.51 1035.97 113.31 1035.97 102.17 1035.98 102.17 1035.98 19.91 1035.97 19.91 1035.97 19.9"/>
      <path class="cls-1" d="M1111.72,92.32c-12.09-10.9-25.38-39.33-6.24-57.8,21.13-20.33,52.35-3.99,59.93,3.72l5.58-10.1c-17.14-12.76-48.37-14.08-67.37,4.52-13.42,13.15-23.78,45.04,0,67.63,26.05,24.71,62.19,11.69,72.82,0l-1.33-2.13c-14.88,14.75-42.92,12.62-63.38-5.85Z"/>
      <polygon class="cls-1" points="323.04 70.78 380.84 70.78 380.84 66.2 323.04 66.2 323.04 24.47 380.84 24.47 380.84 22.56 380.84 22.56 380.84 19.9 380.84 19.9 380.84 19.9 320.45 19.9 320.45 19.9 311.61 19.9 311.61 112.91 321.39 112.91 321.39 112.91 381.77 112.91 381.77 108.34 323.04 108.34 323.04 70.78"/>
      <polygon class="cls-1" points="562.95 70.78 620.75 70.78 620.75 66.2 562.95 66.2 562.95 24.47 620.75 24.47 620.75 22.56 620.75 22.56 620.75 19.9 620.75 19.9 620.75 19.9 560.37 19.9 560.37 19.9 551.52 19.9 551.46 19.9 551.46 112.91 551.52 112.91 561.3 112.91 561.3 112.91 621.68 112.91 621.68 108.34 562.95 108.34 562.95 70.78"/>
      <polygon class="cls-1" points="1236.01 108.34 1236.01 70.78 1293.81 70.78 1293.81 66.2 1236.01 66.2 1236.01 24.47 1293.81 24.47 1293.81 22.56 1293.81 22.56 1293.81 19.9 1293.81 19.9 1293.81 19.9 1233.43 19.9 1233.43 19.9 1224.59 19.9 1224.55 19.9 1224.55 112.91 1224.59 112.91 1234.36 112.91 1234.36 112.91 1294.75 112.91 1294.75 108.34 1236.01 108.34"/>
    </g>
    <g>
      <path class="cls-1" d="M309.25,211.1v-32.3h3.14v32.3h-3.14Z"/>
      <path class="cls-1" d="M330.57,184.68v26.42h-3.14v-32.34h2.46l21.41,26.92v-26.88h3.14v32.3h-2.73l-21.14-26.42Z"/>
      <path class="cls-1" d="M369.24,178.76l11.57,28.38,11.48-28.38h3.37l-13.48,32.34h-2.78l-13.48-32.34h3.33Z"/>
      <path class="cls-1" d="M428.87,208.28v2.82h-21.73v-32.34h21.32v2.82h-18.18v11.66h15.85v2.69h-15.85v12.34h18.58Z"/>
      <path class="cls-1" d="M460.34,184.82c-.91-1.03-2.13-1.87-3.67-2.51-1.53-.64-3.26-.96-5.17-.96-2.89,0-4.98.54-6.29,1.62-1.31,1.08-1.96,2.54-1.96,4.4,0,.97.17,1.77.52,2.39.35.62.89,1.16,1.64,1.62.74.46,1.69.85,2.82,1.18,1.14.33,2.48.67,4.03,1,1.73.36,3.28.77,4.65,1.21,1.37.44,2.53,1,3.51,1.69.97.68,1.72,1.52,2.23,2.51.52.99.77,2.21.77,3.67s-.29,2.78-.87,3.87c-.58,1.09-1.38,2-2.41,2.73-1.03.73-2.26,1.27-3.69,1.62-1.43.35-2.98.52-4.65.52-5.07,0-9.4-1.56-12.98-4.69l1.55-2.6c1.18,1.25,2.78,2.3,4.78,3.17,2,.87,4.24,1.3,6.7,1.3,2.58,0,4.6-.46,6.06-1.39,1.46-.93,2.19-2.33,2.19-4.21,0-1-.21-1.84-.62-2.53-.41-.68-1.02-1.28-1.84-1.78-.82-.5-1.84-.93-3.07-1.3-1.23-.36-2.65-.73-4.26-1.09-1.7-.39-3.19-.8-4.46-1.23-1.28-.42-2.35-.96-3.21-1.59-.87-.64-1.52-1.4-1.96-2.3-.44-.9-.66-2-.66-3.3,0-1.49.28-2.82.84-3.99.56-1.17,1.35-2.14,2.37-2.91,1.02-.77,2.23-1.37,3.64-1.78,1.41-.41,2.97-.61,4.67-.61,2.13,0,4.03.33,5.72.98,1.69.65,3.21,1.57,4.58,2.76l-1.5,2.55Z"/>
      <path class="cls-1" d="M498.7,181.59h-11.52v29.52h-3.19v-29.52h-11.52v-2.82h26.24v2.82Z"/>
      <path class="cls-1" d="M510.49,211.1v-32.3h3.14v32.3h-3.14Z"/>
      <path class="cls-1" d="M531.81,184.68v26.42h-3.14v-32.34h2.46l21.41,26.92v-26.88h3.14v32.3h-2.73l-21.14-26.42Z"/>
      <path class="cls-1" d="M594.12,206.41c-3.01,3.28-6.45,4.92-10.34,4.92-2.19,0-4.2-.47-6.04-1.41-1.84-.94-3.43-2.19-4.78-3.74-1.35-1.55-2.41-3.3-3.17-5.26-.76-1.96-1.14-3.97-1.14-6.04s.37-4.22,1.12-6.19c.74-1.97,1.78-3.71,3.1-5.22,1.32-1.5,2.9-2.7,4.74-3.6,1.84-.9,3.83-1.34,5.99-1.34,1.58,0,3.01.18,4.3.52,1.29.35,2.44.84,3.46,1.46,1.02.62,1.91,1.37,2.66,2.23.76.87,1.4,1.81,1.91,2.85l-2.46,1.64c-1.06-2-2.44-3.48-4.15-4.42-1.7-.94-3.63-1.41-5.78-1.41-1.79,0-3.41.38-4.85,1.14-1.44.76-2.67,1.77-3.69,3.03-1.02,1.26-1.8,2.7-2.35,4.33-.55,1.62-.82,3.3-.82,5.03,0,1.82.31,3.55.93,5.19.62,1.64,1.48,3.08,2.57,4.3,1.09,1.23,2.38,2.21,3.85,2.94,1.47.73,3.07,1.09,4.81,1.09,1.85,0,3.61-.43,5.28-1.3,1.67-.87,3.28-2.22,4.83-4.08v-5.42h-7.15v-2.46h9.88v15.9h-2.73v-4.69Z"/>
      <path class="cls-1" d="M628.92,211.1v-32.3h3.14v32.3h-3.14Z"/>
      <path class="cls-1" d="M650.24,184.68v26.42h-3.14v-32.34h2.46l21.41,26.92v-26.88h3.14v32.3h-2.73l-21.14-26.42Z"/>
      <path class="cls-1" d="M707.64,211.1v-32.34h3.14v29.52h18.72v2.82h-21.86Z"/>
      <path class="cls-1" d="M752.46,208.46c2.03,0,3.73-.39,5.08-1.16,1.35-.77,2.43-1.79,3.23-3.05.8-1.26,1.37-2.69,1.69-4.3.32-1.61.48-3.23.48-4.87v-16.31h3.19v16.31c0,2.19-.24,4.26-.73,6.22-.49,1.96-1.27,3.68-2.35,5.17-1.08,1.49-2.48,2.67-4.21,3.55-1.73.88-3.84,1.32-6.33,1.32s-4.74-.46-6.47-1.39c-1.73-.93-3.13-2.15-4.19-3.67-1.06-1.52-1.82-3.25-2.28-5.19-.46-1.94-.68-3.95-.68-6.01v-16.31h3.14v16.31c0,1.7.17,3.36.5,4.97.33,1.61.9,3.04,1.71,4.28.8,1.25,1.87,2.25,3.21,3.01,1.34.76,3.01,1.14,5.01,1.14Z"/>
      <path class="cls-1" d="M780.29,178.76l10.61,14.12,10.61-14.12h3.51l-12.44,16.4,12.07,15.94h-3.51l-10.25-13.67-10.25,13.67h-3.55l12.07-15.94-12.44-16.4h3.55Z"/>
      <path class="cls-1" d="M829.26,208.46c2.03,0,3.73-.39,5.08-1.16,1.35-.77,2.43-1.79,3.23-3.05.8-1.26,1.37-2.69,1.69-4.3.32-1.61.48-3.23.48-4.87v-16.31h3.19v16.31c0,2.19-.24,4.26-.73,6.22-.49,1.96-1.27,3.68-2.35,5.17-1.08,1.49-2.48,2.67-4.21,3.55-1.73.88-3.84,1.32-6.33,1.32s-4.74-.46-6.47-1.39c-1.73-.93-3.13-2.15-4.19-3.67-1.06-1.52-1.82-3.25-2.28-5.19-.46-1.94-.68-3.95-.68-6.01v-16.31h3.14v16.31c0,1.7.17,3.36.5,4.97.33,1.61.9,3.04,1.71,4.28.8,1.25,1.88,2.25,3.21,3.01,1.34.76,3.01,1.14,5.01,1.14Z"/>
      <path class="cls-1" d="M857.41,211.1v-32.34h13.62c1.4,0,2.69.3,3.87.89,1.18.59,2.2,1.37,3.05,2.32.85.96,1.51,2.04,1.98,3.26.47,1.22.71,2.44.71,3.69s-.17,2.32-.52,3.39c-.35,1.08-.84,2.05-1.48,2.91-.64.87-1.4,1.59-2.28,2.19-.88.59-1.87,1-2.96,1.21l7.97,12.48h-3.6l-7.65-11.93h-9.57v11.93h-3.14ZM860.55,196.34h10.61c.94,0,1.8-.2,2.57-.62.77-.41,1.44-.96,1.98-1.66.55-.7.97-1.49,1.27-2.37.3-.88.46-1.81.46-2.78s-.17-1.91-.52-2.8c-.35-.9-.82-1.68-1.41-2.35-.59-.67-1.29-1.2-2.1-1.59-.81-.39-1.65-.59-2.53-.59h-10.34v14.76Z"/>
      <path class="cls-1" d="M892.8,178.76l10.61,17.4,10.66-17.4h3.46l-12.57,20.32v12.03h-3.14v-12.12l-12.48-20.22h3.46Z"/>
      <path class="cls-1" d="M945.55,211.1v-32.34h13.62c1.4,0,2.69.3,3.87.89,1.18.59,2.2,1.37,3.05,2.32.85.96,1.51,2.04,1.98,3.26.47,1.22.71,2.44.71,3.69s-.17,2.32-.52,3.39c-.35,1.08-.84,2.05-1.48,2.91-.64.87-1.4,1.59-2.28,2.19-.88.59-1.87,1-2.96,1.21l7.97,12.48h-3.6l-7.65-11.93h-9.57v11.93h-3.14ZM948.69,196.34h10.61c.94,0,1.8-.2,2.57-.62.77-.41,1.44-.96,1.98-1.66.55-.7.97-1.49,1.27-2.37.3-.88.46-1.81.46-2.78s-.17-1.91-.52-2.8c-.35-.9-.82-1.68-1.41-2.35-.59-.67-1.29-1.2-2.1-1.59-.81-.39-1.65-.59-2.53-.59h-10.34v14.76Z"/>
      <path class="cls-1" d="M1004.17,208.28v2.82h-21.73v-32.34h21.32v2.82h-18.18v11.66h15.85v2.69h-15.85v12.34h18.58Z"/>
      <path class="cls-1" d="M1013.78,211.1l13.53-32.34h2.6l13.53,32.34h-3.42l-4.19-10.11h-14.53l-4.15,10.11h-3.37ZM1028.63,182.5l-6.65,15.99h13.12l-6.47-15.99Z"/>
      <path class="cls-1" d="M1054.96,211.1v-32.34h3.14v29.52h18.72v2.82h-21.86Z"/>
      <path class="cls-1" d="M1127.66,208.28v2.82h-21.73v-32.34h21.32v2.82h-18.18v11.66h15.85v2.69h-15.85v12.34h18.58Z"/>
      <path class="cls-1" d="M1159.14,184.82c-.91-1.03-2.13-1.87-3.67-2.51-1.53-.64-3.26-.96-5.17-.96-2.88,0-4.98.54-6.29,1.62-1.31,1.08-1.96,2.54-1.96,4.4,0,.97.17,1.77.52,2.39.35.62.9,1.16,1.64,1.62.74.46,1.68.85,2.82,1.18s2.48.67,4.03,1c1.73.36,3.28.77,4.65,1.21,1.37.44,2.54,1,3.51,1.69.97.68,1.71,1.52,2.23,2.51.52.99.77,2.21.77,3.67s-.29,2.78-.87,3.87-1.38,2-2.41,2.73c-1.03.73-2.26,1.27-3.69,1.62-1.43.35-2.98.52-4.65.52-5.07,0-9.4-1.56-12.98-4.69l1.55-2.6c1.18,1.25,2.78,2.3,4.78,3.17,2,.87,4.24,1.3,6.7,1.3,2.58,0,4.6-.46,6.06-1.39,1.46-.93,2.19-2.33,2.19-4.21,0-1-.2-1.84-.61-2.53-.41-.68-1.03-1.28-1.84-1.78-.82-.5-1.84-.93-3.08-1.3-1.23-.36-2.65-.73-4.26-1.09-1.7-.39-3.19-.8-4.46-1.23-1.27-.42-2.35-.96-3.21-1.59-.87-.64-1.52-1.4-1.96-2.3-.44-.9-.66-2-.66-3.3,0-1.49.28-2.82.84-3.99.56-1.17,1.35-2.14,2.37-2.91,1.02-.77,2.23-1.37,3.64-1.78,1.41-.41,2.97-.61,4.67-.61,2.13,0,4.03.33,5.72.98,1.69.65,3.21,1.57,4.58,2.76l-1.5,2.55Z"/>
      <path class="cls-1" d="M1197.49,181.59h-11.52v29.52h-3.19v-29.52h-11.52v-2.82h26.24v2.82Z"/>
      <path class="cls-1" d="M1202.64,211.1l13.53-32.34h2.6l13.53,32.34h-3.42l-4.19-10.11h-14.53l-4.15,10.11h-3.37ZM1217.49,182.5l-6.65,15.99h13.12l-6.47-15.99Z"/>
      <path class="cls-1" d="M1263.59,181.59h-11.52v29.52h-3.19v-29.52h-11.52v-2.82h26.24v2.82Z"/>
      <path class="cls-1" d="M1297.11,208.28v2.82h-21.73v-32.34h21.32v2.82h-18.18v11.66h15.85v2.69h-15.85v12.34h18.58Z"/>
    </g>
  </g>
</svg>