<?xml version="1.0" encoding="UTF-8"?>
<svg id="Layer_1" data-name="Layer 1" xmlns="http://www.w3.org/2000/svg" viewBox="0 0 983.13 466.32">
  <defs>
    <style>
      .cls-1 {
        fill: #0b262c;
        stroke-width: 0px;
      }
    </style>
  </defs>
  <g>
    <polygon class="cls-1" points="129.69 251.21 118.26 251.21 118.26 344.22 125.05 344.22 125.05 344.23 193.77 344.23 193.77 339.65 129.69 339.65 129.69 251.21"/>
    <path class="cls-1" d="M432.6,335.85c-15.55,7.04-37.34,2.92-54.08-12.22-12.09-10.9-25.38-39.33-6.24-57.8,21.13-20.33,52.35-3.99,59.93,3.72l5.58-10.1c-17.14-12.76-48.37-14.08-67.37,4.52-13.42,13.15-23.78,45.04,0,67.63,20.6,19.53,47.44,15.55,62.98,7.17l10.63,5.45v-44.51h-11.43v36.14Z"/>
    <path class="cls-1" d="M400.44,251.08c-10.62,1.29-21.08,5.53-29.27,13.54-11.78,11.54-21.17,37.51-7.23,58.96,1.36-3.52,3.85-6.27,8.17-7.13-9.17-13.42-14.57-35.03.91-49.97,8.48-8.16,15.85-11.1,27.72-10.3-.63-1.82-.46-3.17-.31-5.1Z"/>
    <path class="cls-1" d="M822.13,251.08c-10.62,1.29-21.08,5.53-29.27,13.54-11.78,11.54-21.17,37.51-7.23,58.96,1.36-3.52,3.85-6.27,8.17-7.13-9.17-13.42-14.57-35.03.91-49.97,8.48-8.16,15.85-11.1,27.72-10.3-.63-1.82-.46-3.17-.31-5.1Z"/>
    <path class="cls-1" d="M526.49,250.68l6.38,12.62-36.82,69.21-6.23,11.71h0,0s3.06,0,3.06,0h0s2.13,0,2.13,0l13.91-26.13h51.69l13.19,26.13h12.89l-47.17-93.54h-13.02ZM511.34,313.51l24.05-45.19,22.91,45.19h-46.95Z"/>
    <polygon class="cls-1" points="724.35 251.21 721.7 251.21 721.7 251.22 719.79 251.22 719.79 324.5 634.8 250.68 634.8 344.22 634.81 344.22 634.81 344.23 639.38 344.23 639.38 270.82 724.35 344.62 724.35 333.48 724.37 333.48 724.37 251.22 724.35 251.22 724.35 251.21"/>
    <path class="cls-1" d="M800.11,323.63c-12.09-10.9-25.38-39.33-6.24-57.8,21.13-20.33,52.35-3.99,59.93,3.72l5.58-10.1c-17.14-12.76-48.37-14.08-67.37,4.52-13.42,13.15-23.78,45.04,0,67.63,26.05,24.71,62.19,11.69,72.82,0l-1.33-2.13c-14.88,14.75-42.92,12.62-63.38-5.85Z"/>
    <polygon class="cls-1" points="11.43 302.09 69.22 302.09 69.22 297.51 11.43 297.51 11.43 255.79 69.22 255.79 69.22 253.87 69.23 253.87 69.23 251.21 69.22 251.21 69.22 251.21 8.84 251.21 8.84 251.21 0 251.21 0 344.22 9.78 344.22 9.78 344.23 70.16 344.23 70.16 339.65 11.43 339.65 11.43 302.09"/>
    <polygon class="cls-1" points="251.34 302.09 309.14 302.09 309.14 297.51 251.34 297.51 251.34 255.79 309.14 255.79 309.14 253.87 309.14 253.87 309.14 251.21 309.14 251.21 309.14 251.21 248.75 251.21 248.75 251.21 239.91 251.21 239.85 251.21 239.85 344.22 239.91 344.22 249.69 344.22 249.69 344.23 310.07 344.23 310.07 339.65 251.34 339.65 251.34 302.09"/>
    <polygon class="cls-1" points="924.4 339.65 924.4 302.09 982.2 302.09 982.2 297.51 924.4 297.51 924.4 255.79 982.2 255.79 982.2 253.87 982.2 253.87 982.2 251.21 982.2 251.21 982.2 251.21 921.82 251.21 921.82 251.21 912.97 251.21 912.93 251.21 912.93 344.22 912.97 344.22 922.75 344.22 922.75 344.23 983.13 344.23 983.13 339.65 924.4 339.65"/>
  </g>
  <g>
    <rect class="cls-1" x="487.84" width="11.45" height="156.66"/>
    <g>
      <path class="cls-1" d="M457.71,158.16c-4.65-39.41-4.65-78.47,0-117.88,0,0,11.51,3,11.51,3-14.12,34.5-14.12,77.38,0,111.89,0,0-11.51,3-11.51,3h0Z"/>
      <path class="cls-1" d="M430.35,158.81c-8.33-24.86-10.28-50.65-6.7-76.57,0,0,9.9,3.01,9.9,3.01-10.74,21.32-8.76,49.74,5.95,68.73,0,0-9.15,4.83-9.15,4.83h0Z"/>
      <path class="cls-1" d="M517.91,155.16c14.12-34.5,14.12-77.38,0-111.89,0,0,11.51-3,11.51-3,4.65,39.41,4.65,78.47,0,117.88,0,0-11.51-3-11.51-3h0Z"/>
      <path class="cls-1" d="M547.64,153.98c14.71-18.99,16.69-47.41,5.95-68.73,0,0,9.9-3.01,9.9-3.01,3.58,25.91,1.64,51.71-6.7,76.57,0,0-9.15-4.83-9.15-4.83h0Z"/>
    </g>
  </g>
  <g>
    <path class="cls-1" d="M79.52,466.09v-26.94h2.62v26.94h-2.62Z"/>
    <path class="cls-1" d="M97.3,444.05v22.04h-2.62v-26.98h2.05l17.86,22.46v-22.42h2.62v26.94h-2.28l-17.63-22.04Z"/>
    <path class="cls-1" d="M129.56,439.11l9.65,23.67,9.58-23.67h2.81l-11.25,26.98h-2.32l-11.25-26.98h2.77Z"/>
    <path class="cls-1" d="M179.3,463.73v2.36h-18.13v-26.98h17.78v2.36h-15.16v9.73h13.22v2.24h-13.22v10.3h15.5Z"/>
    <path class="cls-1" d="M205.56,444.16c-.76-.86-1.78-1.56-3.06-2.09-1.28-.53-2.72-.8-4.31-.8-2.41,0-4.16.45-5.24,1.35-1.09.9-1.63,2.12-1.63,3.67,0,.81.15,1.48.44,1.99.29.52.75.97,1.37,1.35.62.38,1.41.71,2.36.99.95.28,2.07.56,3.36.84,1.44.3,2.74.64,3.88,1.01,1.14.37,2.11.84,2.93,1.41.81.57,1.43,1.27,1.86,2.09.43.82.65,1.84.65,3.06s-.24,2.32-.72,3.23c-.48.91-1.15,1.67-2.01,2.28s-1.89,1.06-3.08,1.35c-1.19.29-2.48.44-3.88.44-4.23,0-7.84-1.3-10.83-3.91l1.29-2.17c.99,1.04,2.32,1.92,3.99,2.64,1.67.72,3.53,1.08,5.59,1.08,2.15,0,3.84-.39,5.05-1.16,1.22-.77,1.82-1.94,1.82-3.51,0-.84-.17-1.54-.51-2.11-.34-.57-.85-1.06-1.54-1.48s-1.54-.78-2.56-1.08c-1.03-.3-2.21-.61-3.55-.91-1.42-.33-2.66-.67-3.72-1.03-1.06-.35-1.96-.8-2.68-1.33-.72-.53-1.27-1.17-1.63-1.92-.37-.75-.55-1.67-.55-2.75,0-1.24.23-2.35.7-3.33.47-.97,1.13-1.79,1.98-2.43.85-.65,1.86-1.14,3.04-1.48,1.18-.34,2.48-.51,3.9-.51,1.77,0,3.36.27,4.77.82,1.41.54,2.68,1.31,3.82,2.3l-1.25,2.13Z"/>
    <path class="cls-1" d="M237.56,441.47h-9.61v24.62h-2.66v-24.62h-9.61v-2.36h21.89v2.36Z"/>
    <path class="cls-1" d="M247.4,466.09v-26.94h2.62v26.94h-2.62Z"/>
    <path class="cls-1" d="M265.18,444.05v22.04h-2.62v-26.98h2.05l17.86,22.46v-22.42h2.62v26.94h-2.28l-17.63-22.04Z"/>
    <path class="cls-1" d="M317.17,462.18c-2.51,2.74-5.38,4.1-8.63,4.1-1.82,0-3.5-.39-5.04-1.18-1.53-.79-2.86-1.82-3.99-3.12-1.13-1.29-2.01-2.75-2.64-4.39-.63-1.63-.95-3.31-.95-5.03s.31-3.52.93-5.17c.62-1.65,1.48-3.1,2.58-4.35s2.42-2.25,3.95-3c1.53-.75,3.2-1.12,5-1.12,1.32,0,2.51.15,3.59.44,1.08.29,2.04.7,2.89,1.22.85.52,1.59,1.14,2.22,1.86.63.72,1.17,1.51,1.6,2.38l-2.05,1.37c-.89-1.67-2.04-2.9-3.46-3.69-1.42-.78-3.03-1.18-4.83-1.18-1.5,0-2.84.32-4.05.95-1.2.63-2.23,1.48-3.08,2.53-.85,1.05-1.5,2.25-1.96,3.61-.46,1.36-.68,2.75-.68,4.2,0,1.52.26,2.96.78,4.33.52,1.37,1.23,2.57,2.15,3.59s1.98,1.84,3.21,2.45c1.23.61,2.56.91,4.01.91,1.54,0,3.01-.36,4.41-1.08,1.39-.72,2.74-1.86,4.03-3.4v-4.52h-5.97v-2.05h8.25v13.26h-2.28v-3.91Z"/>
    <path class="cls-1" d="M346.2,466.09v-26.94h2.62v26.94h-2.62Z"/>
    <path class="cls-1" d="M363.98,444.05v22.04h-2.62v-26.98h2.05l17.86,22.46v-22.42h2.62v26.94h-2.28l-17.63-22.04Z"/>
    <path class="cls-1" d="M411.86,466.09v-26.98h2.62v24.62h15.62v2.36h-18.24Z"/>
    <path class="cls-1" d="M449.25,463.89c1.7,0,3.11-.32,4.24-.97,1.13-.65,2.03-1.49,2.7-2.55.67-1.05,1.14-2.25,1.41-3.59.27-1.34.4-2.7.4-4.07v-13.6h2.66v13.6c0,1.82-.2,3.55-.61,5.19-.41,1.63-1.06,3.07-1.96,4.31-.9,1.24-2.07,2.23-3.52,2.96-1.44.74-3.21,1.1-5.28,1.1s-3.95-.39-5.4-1.16c-1.44-.77-2.61-1.79-3.5-3.06-.89-1.27-1.52-2.71-1.9-4.33-.38-1.62-.57-3.29-.57-5.02v-13.6h2.62v13.6c0,1.42.14,2.8.42,4.14.28,1.34.75,2.53,1.42,3.57.67,1.04,1.56,1.88,2.68,2.51,1.11.63,2.51.95,4.18.95Z"/>
    <path class="cls-1" d="M472.47,439.11l8.85,11.78,8.85-11.78h2.93l-10.37,13.68,10.07,13.3h-2.93l-8.55-11.4-8.55,11.4h-2.96l10.07-13.3-10.37-13.68h2.96Z"/>
    <path class="cls-1" d="M513.32,463.89c1.7,0,3.11-.32,4.24-.97,1.13-.65,2.03-1.49,2.7-2.55.67-1.05,1.14-2.25,1.41-3.59.27-1.34.4-2.7.4-4.07v-13.6h2.66v13.6c0,1.82-.2,3.55-.61,5.19-.41,1.63-1.06,3.07-1.96,4.31-.9,1.24-2.07,2.23-3.51,2.96-1.44.74-3.21,1.1-5.28,1.1s-3.95-.39-5.4-1.16c-1.44-.77-2.61-1.79-3.5-3.06-.89-1.27-1.52-2.71-1.9-4.33-.38-1.62-.57-3.29-.57-5.02v-13.6h2.62v13.6c0,1.42.14,2.8.42,4.14.28,1.34.75,2.53,1.42,3.57.67,1.04,1.56,1.88,2.68,2.51,1.11.63,2.51.95,4.18.95Z"/>
    <path class="cls-1" d="M536.81,466.09v-26.98h11.36c1.17,0,2.24.25,3.23.74.99.49,1.84,1.14,2.55,1.94.71.8,1.26,1.7,1.65,2.72.39,1.01.59,2.04.59,3.08s-.15,1.93-.44,2.83c-.29.9-.7,1.71-1.24,2.43-.53.72-1.17,1.33-1.9,1.82-.73.49-1.56.83-2.47,1.01l6.65,10.41h-3l-6.38-9.96h-7.98v9.96h-2.62ZM539.43,453.78h8.85c.78,0,1.5-.17,2.15-.51.65-.34,1.2-.8,1.65-1.39.46-.58.81-1.24,1.06-1.98.25-.73.38-1.51.38-2.32s-.15-1.59-.44-2.34c-.29-.75-.68-1.4-1.18-1.96-.49-.56-1.08-1-1.75-1.33-.67-.33-1.38-.49-2.11-.49h-8.63v12.31Z"/>
    <path class="cls-1" d="M566.33,439.11l8.85,14.52,8.89-14.52h2.89l-10.49,16.95v10.03h-2.62v-10.11l-10.41-16.87h2.89Z"/>
    <path class="cls-1" d="M610.34,466.09v-26.98h11.36c1.17,0,2.24.25,3.23.74.99.49,1.84,1.14,2.55,1.94.71.8,1.26,1.7,1.65,2.72.39,1.01.59,2.04.59,3.08s-.15,1.93-.44,2.83c-.29.9-.7,1.71-1.24,2.43-.53.72-1.17,1.33-1.9,1.82-.73.49-1.56.83-2.47,1.01l6.65,10.41h-3l-6.38-9.96h-7.98v9.96h-2.62ZM612.96,453.78h8.85c.78,0,1.5-.17,2.15-.51.65-.34,1.2-.8,1.65-1.39.46-.58.81-1.24,1.06-1.98.25-.73.38-1.51.38-2.32s-.15-1.59-.44-2.34c-.29-.75-.68-1.4-1.18-1.96-.49-.56-1.08-1-1.75-1.33-.67-.33-1.38-.49-2.11-.49h-8.63v12.31Z"/>
    <path class="cls-1" d="M659.24,463.73v2.36h-18.13v-26.98h17.78v2.36h-15.16v9.73h13.22v2.24h-13.22v10.3h15.5Z"/>
    <path class="cls-1" d="M667.26,466.09l11.29-26.98h2.17l11.29,26.98h-2.85l-3.5-8.44h-12.12l-3.46,8.44h-2.81ZM679.65,442.23l-5.55,13.34h10.94l-5.4-13.34Z"/>
    <path class="cls-1" d="M701.61,466.09v-26.98h2.62v24.62h15.62v2.36h-18.24Z"/>
    <path class="cls-1" d="M762.26,463.73v2.36h-18.13v-26.98h17.78v2.36h-15.16v9.73h13.22v2.24h-13.22v10.3h15.5Z"/>
    <path class="cls-1" d="M788.52,444.16c-.76-.86-1.78-1.56-3.06-2.09-1.28-.53-2.72-.8-4.31-.8-2.41,0-4.15.45-5.24,1.35-1.09.9-1.63,2.12-1.63,3.67,0,.81.15,1.48.44,1.99.29.52.75.97,1.37,1.35.62.38,1.41.71,2.36.99s2.07.56,3.36.84c1.44.3,2.74.64,3.88,1.01,1.14.37,2.12.84,2.93,1.41.81.57,1.43,1.27,1.86,2.09.43.82.65,1.84.65,3.06s-.24,2.32-.72,3.23-1.15,1.67-2.01,2.28c-.86.61-1.89,1.06-3.08,1.35-1.19.29-2.48.44-3.88.44-4.23,0-7.84-1.3-10.83-3.91l1.29-2.17c.99,1.04,2.32,1.92,3.99,2.64s3.53,1.08,5.59,1.08c2.15,0,3.84-.39,5.05-1.16,1.22-.77,1.82-1.94,1.82-3.51,0-.84-.17-1.54-.51-2.11-.34-.57-.86-1.06-1.54-1.48-.68-.42-1.54-.78-2.57-1.08-1.03-.3-2.21-.61-3.55-.91-1.42-.33-2.66-.67-3.72-1.03-1.06-.35-1.96-.8-2.68-1.33-.72-.53-1.27-1.17-1.63-1.92-.37-.75-.55-1.67-.55-2.75,0-1.24.23-2.35.7-3.33.47-.97,1.13-1.79,1.98-2.43.85-.65,1.86-1.14,3.04-1.48,1.18-.34,2.48-.51,3.89-.51,1.77,0,3.36.27,4.77.82,1.41.54,2.68,1.31,3.82,2.3l-1.25,2.13Z"/>
    <path class="cls-1" d="M820.51,441.47h-9.61v24.62h-2.66v-24.62h-9.61v-2.36h21.89v2.36Z"/>
    <path class="cls-1" d="M824.81,466.09l11.29-26.98h2.17l11.29,26.98h-2.85l-3.5-8.44h-12.12l-3.46,8.44h-2.81ZM837.19,442.23l-5.55,13.34h10.94l-5.4-13.34Z"/>
    <path class="cls-1" d="M875.65,441.47h-9.61v24.62h-2.66v-24.62h-9.61v-2.36h21.89v2.36Z"/>
    <path class="cls-1" d="M903.62,463.73v2.36h-18.13v-26.98h17.78v2.36h-15.16v9.73h13.22v2.24h-13.22v10.3h15.5Z"/>
  </g>
</svg>